<?xml version="1.0" encoding="UTF-8"?>
<svg width="24px" height="24px" viewBox="0 0 24 24" version="1.1" xmlns="http://www.w3.org/2000/svg">
    <g stroke="none" stroke-width="1" fill="none" fill-rule="evenodd">
        <path d="M12,2 C13.1045695,2 14,2.8954305 14,4 L14,6 L18,6 C19.1045695,6 20,6.8954305 20,8 L20,9 L4,9 L4,8 C4,6.8954305 4.8954305,6 6,6 L10,6 L10,4 C10,2.8954305 10.8954305,2 12,2 Z M4,11 L20,11 L20,20 C20,21.1045695 19.1045695,22 18,22 L6,22 C4.8954305,22 4,21.1045695 4,20 L4,11 Z M7,13 L7,15 L9,15 L9,13 L7,13 Z M11,13 L11,15 L13,15 L13,13 L11,13 Z M15,13 L15,15 L17,15 L17,13 L15,13 Z" fill="currentColor" fill-rule="nonzero"></path>
    </g>
</svg> 