<?xml version="1.0" encoding="UTF-8"?>
<svg width="24px" height="24px" viewBox="0 0 24 24" version="1.1" xmlns="http://www.w3.org/2000/svg">
    <g stroke="none" stroke-width="1" fill="none" fill-rule="evenodd">
        <path d="M4,19 L20,19 L20,21 L4,21 L4,19 Z M7,16 L17,16 C19.209139,16 21,14.209139 21,12 L21,5 C21,2.790861 19.209139,1 17,1 L7,1 C4.790861,1 3,2.790861 3,5 L3,12 C3,14.209139 4.790861,16 7,16 Z M7,3 L17,3 C18.1045695,3 19,3.8954305 19,5 L19,12 C19,13.1045695 18.1045695,14 17,14 L7,14 C5.8954305,14 5,13.1045695 5,12 L5,5 C5,3.8954305 5.8954305,3 7,3 Z" fill="currentColor" fill-rule="nonzero"></path>
    </g>
</svg> 