<?xml version="1.0" encoding="UTF-8"?>
<svg width="24px" height="24px" viewBox="0 0 24 24" version="1.1" xmlns="http://www.w3.org/2000/svg">
    <g stroke="none" stroke-width="1" fill="none" fill-rule="evenodd">
        <path d="M7,2 L17,2 C18.1045695,2 19,2.8954305 19,4 L19,6 L20,6 C21.1045695,6 22,6.8954305 22,8 L22,20 C22,21.1045695 21.1045695,22 20,22 L4,22 C2.8954305,22 2,21.1045695 2,20 L2,8 C2,6.8954305 2.8954305,6 4,6 L5,6 L5,4 C5,2.8954305 5.8954305,2 7,2 Z M7,4 L5,4 L5,6 L19,6 L19,4 L17,4 L17,6 L7,6 L7,4 Z M4,8 L4,20 L20,20 L20,8 L4,8 Z M7,10 L7,12 L9,12 L9,10 L7,10 Z M11,10 L11,12 L13,12 L13,10 L11,10 Z M15,10 L15,12 L17,12 L17,10 L15,10 Z" fill="currentColor" fill-rule="nonzero"></path>
    </g>
</svg> 